<svg width="150" height="122" viewBox="0 0 150 122" fill="none" xmlns="http://www.w3.org/2000/svg">
<path d="M111.688 27.592C111.9 28.218 112.066 28.8588 112.184 29.5093C112.295 29.7061 112.176 29.8602 112.056 29.9715C111.371 30.6306 111.362 31.4779 111.594 32.2654C111.91 33.3439 112.107 34.4909 112.946 35.3382C113.16 35.5608 113.006 35.8689 113.049 36.1257C113.133 37.2882 113.136 38.4551 113.057 39.6179C113.006 40.4653 112.98 41.3213 112.835 42.1686C111.808 42.1173 111.114 42.7421 110.395 43.3498C108.932 44.5824 107.399 45.7379 105.867 46.8849C104.592 47.8435 104.318 48.6823 104.789 50.1974C105.011 50.9078 105.234 51.6182 105.576 52.2773C106.081 53.2445 106.775 53.4756 107.767 53.0048C108.555 52.6282 109.171 52.0205 109.856 51.5069C110.096 51.3272 110.284 51.0362 110.652 51.0961C110.224 52.457 109.599 53.7409 108.949 55.0163C108.003 56.8611 106.907 58.6247 105.67 60.2889C105.609 60.3642 105.544 60.4357 105.474 60.5029C105.071 60.6826 104.772 60.9822 104.498 61.3246C101.673 64.8511 98.2493 67.6671 94.2948 69.8412C89.9808 72.2121 85.3587 73.5645 80.4712 74.0524C79.2044 74.1808 77.9462 74.275 76.6708 74.2835C73.2727 74.3092 70.0286 73.5731 66.8787 72.3833C63.4892 71.0994 60.3821 69.3019 57.5061 67.1022C57.0182 66.5629 56.6844 65.921 56.2307 65.3475C55.409 64.3032 54.4931 63.3874 53.2092 62.9337C52.6785 62.2233 52.105 61.5471 51.6086 60.811C51.4716 60.6056 51.2919 60.4173 51.3261 60.1348C51.737 59.6555 51.6343 59.1676 51.3261 58.6797C50.5814 57.49 49.9138 56.2403 48.8439 55.2902C48.7745 55.2217 48.7192 55.1403 48.6812 55.0505C47.5942 51.5925 46.6612 48.0917 46.2332 44.4882C45.9223 41.8666 45.8592 39.2214 46.0449 36.5879C46.253 33.5992 46.8368 30.6487 47.7825 27.806C49.2975 23.2352 51.6086 19.1267 54.8355 15.5232C57.9341 12.0567 61.5718 9.29197 65.6804 7.12644C70.2869 4.6912 75.3101 3.14361 80.4883 2.56428C83.1075 2.2647 85.7439 2.18767 88.3802 2.52148C88.7654 2.57284 89.142 2.70123 89.5186 2.78683C91.1449 3.37742 92.6685 4.16489 94.1579 5.02939C100.538 8.72705 105.442 13.8399 108.872 20.3678C108.932 20.4877 108.983 20.6161 109.034 20.7445C109.103 21.0355 108.872 21.1639 108.7 21.3094C107.699 22.1739 107.468 23.1496 108.024 24.348C108.427 25.2125 108.855 26.077 109.308 26.9243C109.762 27.7717 110.181 27.9515 111.14 27.6433C111.32 27.5834 111.491 27.4465 111.688 27.592Z" fill="#1F4C8A"/>
<path d="M89.5185 2.78682C89.0477 2.85529 88.5941 2.6841 88.1233 2.64986C87.6526 2.61563 87.3872 2.55571 87.0191 2.57283C86.4457 2.60707 85.8978 2.46156 85.3244 2.453C83.9548 2.44444 82.5939 2.55571 81.2329 2.67554C78.3383 2.93091 75.4799 3.49915 72.7077 4.3703C70.7699 4.97651 68.879 5.72316 67.0498 6.60431C65.0571 7.55606 63.1474 8.67267 61.3406 9.94248C60.1662 10.7807 59.035 11.6777 57.9511 12.6301C57.175 13.3149 56.4303 14.0339 55.7171 14.7871C54.0372 16.5585 52.5508 18.504 51.2832 20.5904C49.8432 22.9868 48.6884 25.5435 47.8423 28.2082C47.2957 29.9167 46.8835 31.6653 46.6097 33.438C46.4386 34.5165 46.3444 35.6036 46.2417 36.682C46.0876 38.2484 46.1133 39.8148 46.1818 41.3726C46.2395 42.7343 46.3738 44.0917 46.5841 45.4383C46.8771 47.403 47.2829 49.3492 47.7995 51.2673C48.0905 52.3629 48.4244 53.4414 48.7411 54.5284C48.7924 54.7167 48.8866 54.8965 48.8695 55.0933C48.7154 55.1875 48.5613 55.1532 48.4158 55.0933C47.7225 54.7681 46.9778 54.7766 46.2331 54.7852C44.9093 54.7909 43.5825 54.7909 42.253 54.7852C41.979 54.7852 41.6538 54.8708 41.4655 54.5541C41.183 53.7666 40.7294 53.0476 40.4811 52.243C40.6267 51.9948 40.8663 52.1147 41.0632 52.1061C42.5697 52.0547 44.0761 52.2174 45.574 51.9948C45.7297 51.9717 45.884 51.9402 46.0363 51.9007C46.7125 51.6952 46.9521 51.2416 46.7039 50.5911C46.2588 49.4356 45.6596 48.3571 45.0262 47.2957C44.487 46.397 43.6139 46.0546 42.621 46.1231C41.6281 46.1915 40.4383 46.2686 39.3513 46.397C39.0688 46.4312 38.7607 46.4997 38.5296 46.2343C38.0239 43.9803 37.7174 41.6861 37.6137 39.3783C37.2474 32.1359 39.0313 24.9469 42.7409 18.7159C47.4143 10.8526 54.0508 5.33466 62.6502 2.16198C65.9793 0.963175 69.4655 0.25671 72.9987 0.0649238C78.6137 -0.251774 84.0319 0.587048 89.2617 2.64986C89.35 2.69036 89.4357 2.7361 89.5185 2.78682Z" fill="#3B7CBF"/>
<path d="M26.144 107.143V101.151C26.1412 100.857 26.1555 100.563 26.1868 100.27C26.3067 99.2855 26.8716 98.6778 27.8217 98.421C28.5064 98.2327 29.2083 98.1985 29.9102 98.1471C31.605 98.0273 33.3083 97.9417 35.0031 98.1899C35.6229 98.2835 36.2331 98.4324 36.8263 98.635C39.0603 99.4225 40.2501 101.066 40.7037 103.317C40.8805 104.259 40.9636 105.217 40.952 106.176V113.734C40.9263 114.35 40.7637 114.547 40.1388 114.555C39.1031 114.581 38.0674 114.581 37.0317 114.564C36.2785 114.555 36.0645 114.316 36.0645 113.554C36.0559 110.969 36.0645 108.384 36.0645 105.808C36.0785 105.24 36.0326 104.672 35.9275 104.113C35.6879 103.077 35.063 102.427 34.0017 102.23C33.1286 102.067 32.247 102.127 31.3653 102.179C31.1342 102.196 30.9973 102.29 31.0229 102.538C31.0486 102.786 31.0229 102.812 31.0229 102.949V113.46C31.0229 114.427 30.886 114.564 29.9016 114.564H27.1541C27.1541 114.564 26.1868 114.333 26.144 113.58V108.179C26.1697 107.853 26.144 107.143 26.144 107.143Z" fill="#1E335B"/>
<path d="M105.662 107.092V101.237C105.662 100.963 105.67 100.689 105.687 100.415C105.764 99.354 106.278 98.7291 107.305 98.4381C108.007 98.2413 108.735 98.207 109.454 98.1557C111.148 98.0358 112.852 97.9502 114.547 98.207C115.302 98.3117 116.042 98.5131 116.746 98.8062C118.621 99.6108 119.674 101.074 120.144 103.017C120.384 104.01 120.453 105.029 120.461 106.047C120.478 108.513 120.47 110.978 120.47 113.443V113.494C120.461 114.427 120.307 114.581 119.383 114.59C118.458 114.598 117.594 114.598 116.686 114.59C116.494 114.591 116.301 114.571 116.113 114.53C115.977 114.505 115.852 114.435 115.761 114.331C115.669 114.227 115.615 114.095 115.608 113.956C115.591 113.785 115.591 113.605 115.591 113.426V105.859C115.602 105.234 115.536 104.61 115.394 104.002C115.146 103.06 114.555 102.487 113.596 102.281C112.638 102.076 111.765 102.161 110.849 102.213C110.635 102.221 110.524 102.316 110.541 102.547C110.558 102.778 110.541 102.821 110.541 102.957V113.777C110.524 114.401 110.352 114.598 109.736 114.615C108.692 114.641 107.648 114.641 106.612 114.624C105.876 114.615 105.679 114.393 105.679 113.64C105.653 111.466 105.662 109.274 105.662 107.092Z" fill="#1E335B"/>
<path d="M7.64695 114.692C6.75676 114.71 5.90081 114.65 5.06198 114.427C3.0077 113.888 1.53547 112.655 0.790795 110.661C-0.202107 108.025 -0.270589 105.337 0.645277 102.666C1.66386 99.6964 4.06052 97.9674 7.1933 97.839C8.98223 97.7705 10.7027 98.0273 12.3461 98.7634C12.4908 98.8215 12.631 98.8901 12.7655 98.9688C13.1336 99.1914 13.2363 99.4053 13.0994 99.8076C12.7998 100.681 12.4916 101.537 12.1492 102.393C11.9781 102.821 11.7042 102.932 11.2505 102.829C10.6599 102.692 10.0779 102.512 9.48725 102.393C8.89563 102.256 8.28622 102.212 7.68119 102.264C6.79956 102.358 6.14904 102.812 5.71251 103.574C5.50845 103.931 5.36117 104.318 5.27596 104.721C5.03917 105.794 5.03334 106.906 5.25885 107.982C5.57555 109.514 6.49142 110.259 8.06637 110.284C9.05071 110.301 10.0094 110.096 10.9509 109.805C11.1906 109.728 11.4303 109.634 11.6699 109.565C12.1835 109.411 12.3889 109.505 12.5858 110.002C12.9025 110.798 13.2021 111.611 13.4931 112.416C13.6728 112.912 13.5872 113.177 13.1165 113.443C12.4322 113.826 11.6975 114.111 10.9338 114.29C9.86133 114.572 8.75569 114.707 7.64695 114.692Z" fill="#1E335B"/>
<path d="M141.355 102.512V93.6449C141.355 93.4908 141.346 93.3282 141.355 93.1741C141.381 92.6349 141.577 92.4294 142.108 92.4038C142.639 92.3781 143.015 92.3952 143.469 92.3952H145.301C146.063 92.4123 146.251 92.5921 146.251 93.3367C146.259 94.7661 146.251 96.1956 146.251 97.625C146.251 97.7703 146.309 97.9096 146.411 98.0123C146.514 98.1151 146.653 98.1728 146.799 98.1728H149.101C149.829 98.1814 150 98.3611 150 99.0972V100.98C149.991 101.742 149.837 101.896 149.05 101.896H146.687C146.567 101.896 146.452 101.944 146.367 102.029C146.282 102.114 146.234 102.229 146.234 102.35V113.751C146.234 114.307 146.234 114.316 145.686 114.47C144.96 114.677 144.194 114.691 143.461 114.513C142.288 114.222 141.569 113.383 141.406 112.082C141.371 111.752 141.356 111.42 141.363 111.089C141.346 108.23 141.355 105.371 141.355 102.512Z" fill="#1E335B"/>
<path d="M84.8622 103.514V113.614C84.8622 113.614 84.905 114.282 84.2716 114.444C83.6459 114.614 82.9892 114.634 82.3542 114.504C81.1473 114.256 80.3171 113.357 80.1202 112.082C80.0758 111.753 80.0529 111.421 80.0517 111.089L80.026 93.7048C80.0189 93.4907 80.0246 93.2763 80.0432 93.0628C80.1031 92.575 80.3085 92.3524 80.805 92.3438C81.9006 92.3153 82.9962 92.3153 84.0918 92.3438C84.7338 92.361 84.9478 93.3624 84.9478 93.3624V103.531L84.8622 103.514Z" fill="#1E335B"/>
<path d="M57.506 66.9395C58.0025 67.145 58.3791 67.5301 58.7985 67.8383C61.9366 70.1135 65.4308 71.8518 69.1384 72.9825C70.6852 73.4507 72.2685 73.7885 73.8718 73.9925C75.2689 74.1635 76.6793 74.1979 78.083 74.0952C79.9493 73.9935 81.8074 73.7763 83.6467 73.4447C86.5249 72.9041 89.3291 72.0249 92.0008 70.8255C94.4231 69.747 96.6572 68.3604 98.7628 66.7598C100.215 65.6667 101.562 64.4402 102.786 63.0964C103.376 62.4459 103.967 61.7953 104.489 61.0935C104.729 60.7768 104.977 60.4087 105.482 60.5029C104.729 61.6242 103.83 62.6342 102.906 63.6185C98.5745 68.2349 93.416 71.5616 87.43 73.5988C82.7449 75.1789 77.7954 75.8245 72.8618 75.4989C69.2436 75.2739 65.6785 74.5154 62.2822 73.2478C58.6997 71.9192 55.338 70.058 52.3104 67.727C52.1392 67.5986 51.9509 67.4874 51.8311 67.299C52.0622 67.0851 52.3446 67.1364 52.61 67.1707C53.7313 67.3247 54.8526 67.436 55.9653 67.5729C56.5987 67.65 57.1807 67.5986 57.506 66.9395Z" fill="#3B7CBF"/>
<path d="M22.2067 106.552V113.631C22.2067 114.247 22.2067 114.247 21.6075 114.41C20.9883 114.583 20.3362 114.604 19.7073 114.47C18.5261 114.213 17.8242 113.46 17.5332 112.296C17.4465 111.94 17.4062 111.575 17.4134 111.209C17.4134 107.348 17.4048 103.411 17.4048 99.5252C17.3977 99.3709 17.4034 99.2163 17.4219 99.063C17.4733 98.6692 17.6787 98.4553 18.081 98.4467C19.2451 98.4296 20.4178 98.4296 21.5904 98.4467C22.0526 98.4553 22.2409 98.6864 22.2837 99.1571C22.2951 99.3109 22.298 99.4652 22.2923 99.6193V106.544L22.2067 106.552Z" fill="#1E335B"/>
<path d="M110.661 51.0961L108.769 52.5597C108.433 52.8271 108.065 53.0514 107.673 53.2274C106.646 53.681 105.919 53.1931 105.542 52.4998C105.213 51.8803 104.954 51.2256 104.772 50.5483C104.635 50.0861 104.421 49.641 104.421 49.136C104.413 48.7341 104.5 48.3361 104.676 47.9745C104.851 47.613 105.11 47.2982 105.431 47.056C106.749 46.0204 108.11 45.036 109.402 43.9747L111.123 42.5709C111.337 42.3912 111.594 42.2885 111.833 42.1601C112.073 42.0317 112.509 42.0402 112.852 42.1601C113.21 42.5737 113.479 43.0576 113.639 43.5809C113.828 44.1373 114.033 44.6765 114.213 45.2329C114.299 45.51 114.365 45.7933 114.41 46.0803C114.555 47.116 114.273 47.9976 113.468 48.708C112.663 49.4184 112.047 49.9234 111.328 50.5226C111.097 50.7109 110.883 50.9078 110.661 51.0961Z" fill="#12AAB9"/>
<path d="M38.521 46.2515C39.3855 46.2857 40.2329 46.1316 41.0974 46.106C41.9619 46.0803 42.6467 45.8749 43.4342 46.0289C44.2217 46.183 44.7523 46.5083 45.1375 47.1588C45.7757 48.2355 46.3474 49.3503 46.8494 50.4969C47.1918 51.2844 46.9265 51.8151 46.0876 52.0633C45.6372 52.1941 45.17 52.2575 44.701 52.2516C43.2972 52.2602 41.8849 52.2516 40.4812 52.2516C40.3014 52.1575 40.1045 52.1831 39.9077 52.166C38.9747 52.0719 38.2386 51.6696 37.7592 50.8479C37.2442 49.9519 36.7896 49.0226 36.3983 48.0661C36.3467 47.9416 36.3066 47.8127 36.2784 47.6809C36.1415 46.9533 36.4582 46.5168 37.1943 46.4055C37.6223 46.3285 38.0759 46.3028 38.521 46.2515Z" fill="#D35B2B"/>
<path d="M111.688 27.592C111.414 27.6947 111.148 27.8145 110.866 27.8916C110.378 28.0285 109.83 28.0456 109.402 27.3694C109.308 27.2239 109.214 27.0698 109.128 26.9158C108.718 26.0941 108.315 25.2638 107.896 24.4507C107.305 23.2866 107.579 21.7459 108.641 21.181C108.812 21.0844 108.948 20.934 109.026 20.753C109.18 20.7616 109.274 20.6589 109.385 20.5733C110.241 19.8885 111.097 19.2123 111.902 18.4676L112.073 18.305C112.826 17.6288 113.357 17.6973 113.845 18.596C114.418 19.6403 114.966 20.7016 115.471 21.7801C115.976 22.8586 115.89 23.8858 114.846 24.7246C113.802 25.5634 112.989 26.3423 112.073 27.164C111.927 27.2838 111.756 27.3865 111.688 27.592Z" fill="#147D9B"/>
<path d="M41.457 54.5626L46.0192 54.6054H47.132C47.7568 54.614 48.3046 54.8708 48.861 55.1104C49.8625 55.8551 50.4274 56.9422 51.095 57.9522C51.3015 58.2607 51.4901 58.5807 51.66 58.9108C51.9339 59.4415 51.8739 59.724 51.4374 60.1519C51.0009 60.5799 50.3589 60.5542 49.7769 60.52C48.298 60.42 46.8261 60.2342 45.3687 59.9636C45.1013 59.9109 44.8441 59.8156 44.6069 59.6812C44.2217 59.5528 43.828 59.4415 43.4428 59.296C42.8646 59.0995 42.3718 58.7095 42.0476 58.1918C41.6025 57.4814 41.1318 56.7881 40.6696 56.0862C40.5069 55.838 40.3785 55.5812 40.3785 55.2731C40.3785 54.9649 40.524 54.6654 40.9435 54.5969C41.1135 54.572 41.2852 54.5606 41.457 54.5626Z" fill="#CC2152"/>
<path d="M113.057 36.1257C113.049 35.9366 113.002 35.7513 112.918 35.5817C112.834 35.4122 112.715 35.2622 112.569 35.1413C112.218 34.8332 112.116 34.3282 111.953 33.8917C111.79 33.4551 111.731 33.1384 111.576 32.7875C111.328 32.2055 111.337 31.6063 111.362 30.9986C111.38 30.6049 111.568 30.2967 111.825 30.0143C112.081 29.7318 112.167 29.7404 112.201 29.5007C112.424 29.5007 112.535 29.321 112.681 29.1926L115.762 26.3166C115.872 26.2052 115.992 26.1049 116.122 26.017C116.618 25.7089 117.02 25.7945 117.294 26.308C117.845 27.3212 118.249 28.4078 118.492 29.5349C118.672 30.3652 118.475 31.1184 117.876 31.7604C117.063 32.6334 116.267 33.5151 115.462 34.3967C115.274 34.5936 115.077 34.7819 114.872 34.9702C114.375 35.4067 113.862 35.7919 113.16 35.6121C113.014 35.7833 113.126 35.9716 113.057 36.1257Z" fill="#068FA9"/>
<path d="M57.5061 66.9395C57.4719 67.4959 57.3606 67.6414 56.8556 67.7356C56.4875 67.804 56.1195 67.7612 55.7514 67.7184C54.5959 67.5729 53.4403 67.4445 52.2848 67.3076C52.131 67.2962 51.9767 67.2933 51.8226 67.299C51.4117 67.1364 50.9837 67.1364 50.5558 67.0765C49.1777 66.9053 48.005 66.3746 47.1491 65.2362C46.7382 64.6884 46.2931 64.1663 45.8652 63.627C45.7642 63.5077 45.6754 63.3787 45.5998 63.2419C45.343 62.7625 45.4971 62.403 46.0278 62.2661C46.1798 62.2307 46.3343 62.2078 46.49 62.1976C47.2176 61.898 47.9537 62.1891 48.6727 62.2404C49.8539 62.3175 51.0351 62.4287 52.2078 62.54C52.6015 62.5742 52.9781 62.617 53.3119 62.8567C54.9468 63.3103 55.8455 64.6285 56.8042 65.8696C57.0695 66.212 57.275 66.5886 57.5061 66.9395Z" fill="#AB295C"/>
<path d="M39.882 59.3474C38.7436 59.1676 37.6052 58.9964 36.4668 58.7996C35.7392 58.6712 35.0117 58.5171 34.2841 58.3716C33.257 58.1662 32.4438 57.644 31.896 56.7367C31.5451 56.1461 31.177 55.5727 30.8261 54.9821C30.6602 54.7394 30.5545 54.4606 30.5179 54.1689C30.4751 53.7409 30.672 53.5098 31.1085 53.467C31.2055 53.457 31.3034 53.4599 31.3996 53.4756C32.906 53.818 34.4553 53.9036 35.9789 54.1261C36.2699 54.1689 36.5609 54.2203 36.8434 54.2802C37.5817 54.4166 38.24 54.83 38.6837 55.4357C39.3171 56.2831 39.8564 57.1904 40.447 58.0634C40.539 58.2131 40.611 58.3743 40.6609 58.5428C40.815 59.0478 40.6438 59.296 40.1303 59.3217C40.0533 59.326 39.9761 59.326 39.8991 59.3217L39.882 59.3474Z" fill="#B70F7D"/>
<path d="M45.0006 66.0579C44.1361 65.9809 43.2973 65.8011 42.4585 65.6385C41.2516 65.3989 40.0532 65.1078 38.8549 64.8425C37.6566 64.5771 36.6209 63.9352 35.8848 62.8995C35.5681 62.4544 35.2514 62.0093 34.9518 61.5557C34.8316 61.3766 34.7392 61.1804 34.6779 60.9736C34.5923 60.6741 34.7207 60.4772 35.0374 60.4258C35.2108 60.3971 35.3883 60.4029 35.5595 60.443C37.4426 60.8709 39.3514 61.1962 41.2516 61.5471C41.6521 61.6289 42.0446 61.7464 42.4242 61.8981C42.9393 62.0895 43.3943 62.4144 43.7424 62.8396L45.4628 64.988C45.4884 65.0173 45.5113 65.0488 45.5313 65.0822C45.6768 65.3133 45.8823 65.5444 45.7367 65.8354C45.5912 66.1264 45.266 66.0408 45.0006 66.0579Z" fill="#802480"/>
<path d="M26.7517 50.8479L26.4607 50.7965C25.4377 50.5311 24.434 50.1965 23.4563 49.7951C22.6004 49.4356 21.9841 48.8535 21.6246 47.9976C21.3678 47.407 21.0939 46.8164 20.8371 46.2344C20.7949 46.1452 20.7577 46.0538 20.7258 45.9604C20.6231 45.6865 20.5033 45.3784 20.743 45.1387C20.9826 44.8991 21.2565 45.0189 21.5219 45.0874C22.5576 45.3698 23.5933 45.6523 24.6375 45.9177C25.4849 46.1402 26.0927 46.6281 26.435 47.4498C26.7175 48.1345 27.0428 48.8022 27.3509 49.4869C27.4329 49.6632 27.4988 49.8466 27.5478 50.0347C27.659 50.6082 27.4108 50.8821 26.7517 50.8479Z" fill="#761754"/>
<path d="M30.5093 57.4471C30.4408 57.43 30.2868 57.4129 30.1327 57.3701C28.6947 56.9849 27.2995 56.4885 25.9985 55.7524C25.5106 55.4785 25.0911 55.1361 24.7916 54.6653C24.3249 53.9648 23.9183 53.2261 23.5761 52.457C23.4918 52.2796 23.4286 52.0928 23.3878 51.9007C23.3108 51.5069 23.5162 51.2929 23.9185 51.3529C24.11 51.392 24.2966 51.4522 24.4749 51.5326C25.5448 51.9691 26.6147 52.3971 27.7104 52.7395C28.6519 53.0305 29.3623 53.5869 29.8331 54.4685C30.1498 55.0762 30.5093 55.6582 30.8431 56.2574C30.9513 56.4416 31.032 56.6405 31.0828 56.848C31.1769 57.2588 31.0143 57.4471 30.5093 57.4471Z" fill="#651A53"/>
<path d="M121.634 25.9314C121.642 26.2995 121.497 26.6162 121.326 26.9329C120.949 27.6176 120.444 28.2168 119.973 28.8416C119.665 29.2525 119.254 29.2354 119.049 28.7646C118.527 27.592 117.996 26.4108 117.799 25.1183C117.767 24.904 117.778 24.6856 117.831 24.4755C117.884 24.2655 117.978 24.068 118.107 23.8943C118.604 23.2181 119.1 22.5419 119.631 21.8828C119.956 21.4806 120.281 21.5234 120.461 22.0112C120.881 23.1496 121.3 24.288 121.583 25.4607C121.608 25.6147 121.617 25.7774 121.634 25.9314Z" fill="#2767AE"/>
<path d="M19.7843 93.1399C20.3321 93.1399 20.8799 93.1227 21.4277 93.1399C21.9755 93.157 22.1895 93.3539 22.1981 93.9359C22.2066 94.5179 22.2066 95.2626 22.1981 95.9302C22.1895 96.5979 22.0355 96.7177 21.4277 96.7348C20.3321 96.769 19.2365 96.769 18.1409 96.7348C17.5417 96.7177 17.3534 96.478 17.3448 95.8789C17.3363 95.2797 17.3277 94.5864 17.3448 93.9444C17.362 93.3025 17.5845 93.1655 18.1323 93.1399C18.6801 93.1142 19.2365 93.1399 19.7843 93.1399Z" fill="#1E335B"/>
<path d="M53.3118 62.8653C51.0436 62.5742 48.7582 62.4715 46.4899 62.2062C45.9763 61.5471 45.4542 60.888 44.9492 60.2204C44.8208 60.0492 44.7181 59.8609 44.5983 59.6812C45.2488 59.7753 45.9079 59.8438 46.5584 59.9807C47.7995 60.2461 49.0749 60.2974 50.3417 60.3488C50.7183 60.3659 51.0693 60.229 51.4288 60.1605C51.7626 60.9137 52.3275 61.5129 52.8068 62.1634C52.997 62.3808 53.1661 62.6158 53.3118 62.8653Z" fill="#3B7CBF"/>
<path d="M69.0014 26.7617C70.2682 26.7531 71.1241 27.2667 71.6291 28.3623C72.2625 29.7489 72.8788 31.1441 73.4352 32.565C73.546 32.8371 73.6236 33.1216 73.6663 33.4124C73.8461 34.5679 73.3839 35.4581 72.3054 35.9203C71.2269 36.3825 70.1056 36.742 68.9843 37.0929C67.4179 37.5808 65.8429 38.0516 64.268 38.5223C63.4976 38.7534 62.7016 38.8733 61.897 38.7705C61.0924 38.6678 60.4761 38.2912 60.1252 37.5123C59.4319 35.9802 58.7557 34.4395 58.1651 32.8646C57.5744 31.2896 58.2164 29.9458 59.7828 29.4494C62.4705 28.602 65.1154 27.6348 67.8373 26.9243C68.2482 26.8302 68.6504 26.7446 69.0014 26.7617Z" fill="#E19A2F"/>
<path d="M67.2725 49.5811C66.9594 49.5827 66.647 49.554 66.3395 49.4955C65.9741 49.4229 65.6297 49.2691 65.3319 49.0454C65.0341 48.8216 64.7904 48.5337 64.619 48.203C63.8604 46.8115 63.1969 45.3703 62.6332 43.8891C62.1453 42.6137 62.5819 41.5695 63.8315 40.9789C64.3451 40.7306 64.91 40.6279 65.4578 40.4824C67.8602 39.849 70.234 39.1243 72.5793 38.3083C73.2555 38.0772 73.9489 37.9831 74.6593 38.1115C75.0377 38.1701 75.3995 38.3078 75.7211 38.5158C76.0426 38.7238 76.3166 38.9972 76.5253 39.3183C77.0764 40.1485 77.5547 41.0249 77.9547 41.9375L78.648 43.4868C79.2386 44.8477 78.8363 46.0032 77.5267 46.7051C76.7136 47.1416 75.8148 47.3642 74.9418 47.6466C73.3754 48.1431 71.8004 48.5882 70.1998 48.9819C69.5578 49.1445 68.9415 49.4013 68.2739 49.4955C67.9315 49.5383 67.6063 49.5725 67.2725 49.5811Z" fill="#FAEA3C"/>
<path d="M79.3841 48.7251C80.7023 48.6823 81.6096 49.1788 82.1745 50.3086C82.7394 51.4385 83.2188 52.3201 83.7494 53.3215C83.9585 53.701 84.062 54.1296 84.049 54.5626C84.0383 54.8273 83.9708 55.0865 83.8512 55.3228C83.7316 55.559 83.5626 55.7669 83.3557 55.9322C82.9141 56.2933 82.4005 56.5559 81.8492 56.7025C79.4355 57.4129 77.0131 58.1319 74.5908 58.8252C73.6835 59.0906 72.7676 59.2532 71.8175 59.082C70.8674 58.9108 70.0799 58.4315 69.5835 57.5413C69.087 56.6511 68.5307 55.7096 68 54.7938C67.8388 54.5244 67.7095 54.2371 67.6148 53.9378C67.3409 53.0476 67.5977 52.3714 68.3937 51.875C68.8928 51.5632 69.4435 51.3429 70.02 51.2245C72.6563 50.651 75.2156 49.7779 77.792 48.9905C78.3484 48.845 78.8962 48.6995 79.3841 48.7251Z" fill="#DF912F"/>
<path d="M90.9053 31.6834C91.8725 31.6662 92.5744 32.0514 93.0451 32.8474C93.6742 33.9072 94.2484 34.9985 94.7656 36.1171C95.3562 37.401 94.9539 38.5566 93.67 39.3012C92.6257 39.9089 91.5301 40.4482 90.443 40.9703L86.5741 42.802C85.7781 43.1786 84.965 43.5039 84.0491 43.4868C83.2787 43.4782 82.6796 43.1786 82.2773 42.5281C81.4864 41.2458 80.7912 39.9069 80.1973 38.5223C79.7009 37.3925 80.1117 36.2969 81.1645 35.6378C81.6011 35.3639 82.0804 35.1927 82.5512 35.0044C84.8194 34.1057 87.0278 33.0443 89.2533 32.0514C89.7707 31.8102 90.3344 31.6846 90.9053 31.6834Z" fill="#9CC451"/>
<path d="M89.0649 52.9535C88.0805 52.9364 87.3444 52.594 86.8565 51.7637C86.3033 50.8413 85.8115 49.8834 85.3843 48.8963C84.9049 47.7323 85.1703 46.8078 86.1974 46.0803C86.5036 45.8703 86.8305 45.6924 87.1732 45.5496C89.6555 44.4797 92.0864 43.307 94.406 41.9204C94.9107 41.6127 95.4927 41.4553 96.0837 41.4668C96.7684 41.4753 97.2991 41.7749 97.6158 42.3741C98.155 43.3926 98.6857 44.4198 99.1651 45.4726C99.6444 46.5254 99.2421 47.7151 98.2578 48.4256C97.5302 48.9562 96.717 49.3585 95.9296 49.7865C94.2434 50.7024 92.5486 51.5925 90.8538 52.4913C90.2889 52.7994 89.6555 52.9193 89.0649 52.9535Z" fill="#D3CC3E"/>
<path d="M77.5181 67.2049C77.1283 67.2167 76.7389 67.1706 76.3626 67.0679C75.7549 66.9053 75.2499 66.6057 74.9075 66.0579C74.4025 65.2619 73.8889 64.483 73.3753 63.6955C73.2578 63.5162 73.1683 63.3199 73.11 63.1135C72.8703 62.2918 73.1528 61.6413 73.906 61.2475C74.2055 61.1012 74.5217 60.9919 74.8476 60.9223C77.6637 60.2632 80.4369 59.4158 83.1845 58.5256C83.9206 58.286 84.6739 58.1918 85.4357 58.3973C86.0263 58.5513 86.5227 58.8595 86.848 59.373C87.3855 60.1921 87.866 61.0472 88.286 61.9323C88.8595 63.1905 88.4829 64.1577 87.1904 64.6713C85.6582 65.279 84.0662 65.6899 82.4912 66.135C81.233 66.4859 79.9747 66.8711 78.6908 67.1279C78.302 67.1792 77.9103 67.2049 77.5181 67.2049Z" fill="#D35B2B"/>
<path d="M51.9852 52.0718C51.0522 52.1917 50.1449 51.5583 49.4601 50.4798C48.7754 49.4013 48.2789 48.2287 47.8338 47.0389C47.7671 46.8563 47.7212 46.6668 47.6969 46.474C47.6437 46.1338 47.708 45.7857 47.8792 45.487C48.0503 45.1883 48.3181 44.9568 48.6384 44.8306C49.0015 44.6813 49.3855 44.5889 49.7768 44.5567C51.1463 44.454 52.4816 44.1287 53.8255 43.8976C54.5359 43.7692 55.2463 43.6237 55.9568 43.5124C56.3828 43.4439 56.8177 43.4526 57.2407 43.5381C57.5594 43.5952 57.8619 43.7203 58.1278 43.905C58.3937 44.0896 58.6166 44.3294 58.7814 44.608C59.3977 45.6095 59.8856 46.6794 60.3564 47.7493C60.5875 48.2715 60.8186 48.785 60.9127 49.3499C61.0839 50.3514 60.6559 51.0019 59.663 51.1817C57.1237 51.6305 54.5599 51.9278 51.9852 52.0718Z" fill="#DF912F"/>
<path d="M99.576 35.4752C98.9768 35.4752 98.4205 35.3125 98.0866 34.799C97.29 33.568 96.6244 32.2569 96.1008 30.8873C95.6814 29.8003 96.2549 29.0043 97.0766 28.5164C99.1395 27.2838 101.211 26.0598 103.222 24.7502C103.547 24.5288 103.906 24.3611 104.284 24.2538C104.891 24.0826 105.474 24.2281 105.816 24.716C106.62 25.8715 107.297 27.1126 107.725 28.465C108.033 29.4579 107.699 30.2967 106.903 30.9044C105.131 32.2483 103.342 33.5664 101.502 34.8247C100.936 35.2227 100.267 35.4486 99.576 35.4752Z" fill="#2EA57F"/>
<path d="M58.1565 60.5885C57.7627 60.5885 57.369 60.6227 56.9838 60.5799C55.8797 60.4515 54.998 59.9465 54.3561 59.005C53.7019 58.0531 53.1183 57.0547 52.6099 56.0177C52.5516 55.8942 52.5058 55.7652 52.473 55.6326C52.2932 55.0163 52.5158 54.5541 53.1064 54.3059C53.697 54.0576 54.1849 54.0919 54.7241 54.0576C56.7185 53.9207 58.6957 53.6725 60.6815 53.5013C62.1966 53.3729 63.4548 53.8693 64.2594 55.2474C64.7045 56.0092 65.1667 56.7538 65.6204 57.5156C65.8197 57.8316 65.9724 58.1747 66.074 58.5342C66.2966 59.3901 65.9799 59.9465 65.1239 60.1776C64.6275 60.306 64.1225 60.3317 63.6089 60.3574C61.7943 60.4515 59.9711 60.5285 58.1565 60.6141V60.5885Z" fill="#D35B2B"/>
<path d="M76.6707 102.855C75.9432 99.5851 74.0344 97.8818 70.7133 97.4538C69.301 97.274 67.9058 97.3768 66.5106 97.5479C65.2658 97.6869 64.0452 97.9921 62.8814 98.4552C62.1624 98.7463 61.7943 99.2256 61.8029 100.073C61.8457 103.052 61.82 106.022 61.82 109H61.8371V117.757C61.8329 117.971 61.8414 118.185 61.8628 118.399C62.034 119.922 63.0697 120.992 64.5762 121.189C65.2096 121.275 65.8173 121.138 66.4336 120.992C66.6561 120.941 66.6989 120.804 66.6989 120.607C66.6989 120.41 66.716 119.982 66.716 119.665V114.324C66.716 113.871 66.7246 113.862 67.1611 113.931C68.0666 114.08 68.9825 114.157 69.9002 114.162C73.2041 114.136 75.5837 112.356 76.4995 109.206C77.0904 107.137 77.1492 104.952 76.6707 102.855ZM71.7576 107.982C71.3467 109.206 70.4993 109.805 69.2069 109.856C68.5233 109.869 67.8404 109.809 67.1697 109.677C66.8958 109.625 66.7845 109.505 66.7931 109.206C66.8187 108.624 66.8016 108.033 66.8016 107.451V105.748H66.8359C66.8359 104.592 66.8444 103.445 66.8273 102.29C66.8273 101.982 66.9129 101.836 67.2382 101.793C68.0342 101.674 68.8217 101.562 69.6263 101.691C70.7647 101.87 71.535 102.487 71.8432 103.591C72.2649 105.029 72.235 106.561 71.7576 107.982Z" fill="#1E335B"/>
<path d="M102.084 107.545H102.075C102.075 105.996 102.118 104.447 102.067 102.906C101.981 100.424 100.655 98.7463 98.3263 98.0958C97.7783 97.9428 97.2162 97.8453 96.6487 97.8047C95.0656 97.6987 93.4755 97.7907 91.9152 98.0786C91.1823 98.2001 90.4628 98.3921 89.7668 98.6521C89.2961 98.8319 89.1163 99.063 89.2019 99.4824C89.3645 100.287 89.5443 101.092 89.7497 101.888C89.8524 102.273 90.1092 102.418 90.5029 102.393C90.6385 102.375 90.7729 102.349 90.9052 102.316C92.1826 102.012 93.4875 101.84 94.7998 101.802C95.2317 101.785 95.6638 101.828 96.0837 101.93C96.7086 102.102 97.1023 102.495 97.205 103.146C97.2337 103.338 97.2452 103.533 97.2393 103.728C97.2393 104.216 97.2393 104.224 96.7685 104.224H94.0637C93.0023 104.233 91.9581 104.37 90.9566 104.755C89.2704 105.405 88.1405 106.561 87.781 108.376C87.6612 109.052 87.6525 109.743 87.7553 110.421C87.9779 111.919 88.7654 113.023 90.1006 113.734C90.6738 114.029 91.2842 114.244 91.9152 114.376C93.6614 114.752 95.4161 114.701 97.1793 114.538C98.4889 114.431 99.7769 114.14 101.005 113.674C101.759 113.383 102.11 112.886 102.093 112.065C102.067 110.567 102.084 109.06 102.084 107.545ZM97.2136 109.334C97.2136 109.805 97.205 110.267 97.2136 110.738C97.2136 110.952 97.128 111.063 96.9226 111.106C95.981 111.286 95.0395 111.431 94.0808 111.243C93.6772 111.169 93.2963 111.002 92.9681 110.755C91.9666 109.976 92.1121 108.513 93.2334 107.939C93.6386 107.738 94.0824 107.627 94.5345 107.614C95.3134 107.588 96.0923 107.605 96.8798 107.588C97.128 107.58 97.2307 107.657 97.2307 107.922C97.205 108.393 97.2136 108.863 97.2136 109.334Z" fill="#1E335B"/>
<path d="M55.7514 98.9175C54.2791 97.8732 52.6015 97.5907 50.8296 97.8047C47.9194 98.1471 45.8737 99.6536 44.8551 102.41C43.8879 105.029 43.9393 107.717 44.7866 110.361C45.4543 112.433 46.918 113.725 49.0236 114.299C49.9869 114.554 50.9802 114.677 51.9766 114.667C52.7219 114.684 53.4672 114.629 54.2021 114.504C55.3491 114.299 56.4532 113.982 57.4461 113.366C58.0453 112.998 58.1309 112.732 57.8656 112.099C57.6002 111.466 57.3349 110.875 57.061 110.276C56.7871 109.677 56.5645 109.6 55.9397 109.805C55.4432 109.968 54.9468 110.165 54.4418 110.301C53.329 110.61 52.2077 110.695 51.0779 110.378C49.948 110.062 49.3232 109.386 49.152 108.247C49.075 107.725 49.0749 107.717 49.6056 107.717H55.8284C56.3334 107.717 56.847 107.708 57.3434 107.58C57.6023 107.52 57.8412 107.394 58.0364 107.214C58.2316 107.034 58.3763 106.806 58.4562 106.552C58.574 106.199 58.6375 105.829 58.6445 105.457C58.8328 102.761 58.0025 100.51 55.7514 98.9175ZM54.2962 104.438L49.3745 104.421C49.3183 104.407 49.2638 104.387 49.2119 104.361C49.2547 104.104 49.2804 103.865 49.3403 103.642C49.6484 102.393 50.6242 101.648 51.9681 101.674C53.6971 101.699 54.4161 102.598 54.5958 104.07C54.6215 104.301 54.5873 104.438 54.2962 104.438Z" fill="#1E335B"/>
<path d="M138 104.267C137.794 101.751 136.681 99.7905 134.43 98.5665C133.095 97.8475 131.657 97.6678 130.159 97.8475C127.223 98.1985 125.177 99.7221 124.167 102.504C123.252 105.012 123.303 107.58 124.031 110.122C124.698 112.458 126.29 113.871 128.636 114.41C130.744 114.893 132.943 114.816 135.012 114.187C135.69 113.994 136.334 113.697 136.921 113.306C137.315 113.032 137.443 112.767 137.281 112.356C136.972 111.594 136.647 110.841 136.288 110.105C136.108 109.728 135.86 109.651 135.457 109.771C135.312 109.814 135.166 109.891 135.021 109.942C134.105 110.293 133.164 110.567 132.179 110.61C131.366 110.644 130.57 110.567 129.834 110.19C129.098 109.814 128.576 109.103 128.481 108.196C128.439 107.794 128.464 107.768 128.884 107.768H132.41C133.352 107.768 134.285 107.776 135.226 107.768C135.636 107.782 136.046 107.754 136.45 107.682C137.332 107.494 137.734 107.092 137.897 106.21C138.024 105.571 138.059 104.916 138 104.267ZM133.591 104.438C131.991 104.421 130.382 104.43 128.781 104.43C128.725 104.424 128.67 104.409 128.618 104.387C128.576 102.701 129.8 101.562 131.503 101.674C133.206 101.785 133.805 102.949 133.925 104.036C133.951 104.301 133.908 104.447 133.591 104.438Z" fill="#1E335B"/>
</svg>
